<?xml version="1.0" encoding="UTF-8"?> <svg xmlns="http://www.w3.org/2000/svg" width="1500" height="1500" viewBox="0 0 1500 1500" fill="none"><rect width="1500" height="1500" rx="750" fill="white"></rect><path d="M1132.6 485.341C1169.83 476.584 1192.9 439.311 1184.14 402.089C1175.39 364.867 1138.11 341.791 1100.89 350.548C1063.67 359.305 1040.59 396.578 1049.35 433.8C1058.11 471.022 1095.38 494.098 1132.6 485.341Z" fill="black"></path><path fill-rule="evenodd" clip-rule="evenodd" d="M911.025 479.583H424.389V1020.56H559.84V844.553H819.383L937.796 1020.56H1089.46L958.887 843.754C999.442 837.275 1028.64 821.863 1046.48 797.519C1064.31 773.174 1073.25 734.245 1073.25 682.36V641.804C1073.25 610.981 1069.99 586.665 1064.31 568C1058.63 549.334 1048.9 533.124 1035.12 518.54C1020.5 504.755 1004.29 495.023 984.83 488.544C965.365 482.836 941.021 479.583 911.025 479.583ZM889.106 725.312H559.84V598.794H889.135C907.8 598.794 920.757 602.048 927.264 607.727C933.743 613.407 937.796 623.938 937.796 639.35V684.757C937.796 700.968 933.743 711.528 927.264 717.207C920.757 722.886 907.772 725.312 889.106 725.312Z" fill="black"></path></svg> 